<?xml version="1.0" encoding="UTF-8" standalone="no"?>
<!DOCTYPE svg PUBLIC "-//W3C//DTD SVG 1.1//EN" "http://www.w3.org/Graphics/SVG/1.1/DTD/svg11.dtd">
<!-- Created with Vectornator (http://vectornator.io/) -->
<svg height="100%" stroke-miterlimit="10" style="fill-rule:nonzero;clip-rule:evenodd;stroke-linecap:round;stroke-linejoin:round;" version="1.1" viewBox="803.742 487.415 84.952 84.953" width="100%" xml:space="preserve" xmlns="http://www.w3.org/2000/svg" xmlns:vectornator="http://vectornator.io" xmlns:xlink="http://www.w3.org/1999/xlink">
<defs/>
<clipPath id="ArtboardFrame">
<rect height="84.953" width="84.952" x="803.742" y="487.415"/>
</clipPath>
<g clip-path="url(#ArtboardFrame)" id="Layer" vectornator:layerName="Layer">
<path d="M807.417 488.167L811.165 491.842L807.49 495.59L803.742 491.915L807.417 488.167ZM884.946 564.192L888.694 567.868L885.019 571.616L881.271 567.94L884.946 564.192ZM859.354 564.443L863.102 568.118L859.427 571.866L855.679 568.191L859.354 564.443ZM833.762 564.694L837.51 568.369L833.834 572.117L830.086 568.442L833.762 564.694ZM808.169 564.944L811.917 568.62L808.242 572.368L804.494 568.692L808.169 564.944ZM884.696 538.6L888.444 542.275L884.769 546.023L881.021 542.348L884.696 538.6ZM859.103 538.851L862.851 542.526L859.176 546.274L855.428 542.599L859.103 538.851ZM833.511 539.101L837.259 542.777L833.584 546.525L829.836 542.849L833.511 539.101ZM807.919 539.352L811.666 543.027L807.991 546.775L804.243 543.1L807.919 539.352ZM884.445 513.007L888.193 516.683L884.518 520.431L880.77 516.756L884.445 513.007ZM858.853 513.258L862.601 516.933L858.925 520.681L855.177 517.006L858.853 513.258ZM833.26 513.509L837.008 517.184L833.333 520.932L829.585 517.257L833.26 513.509ZM884.194 487.415L887.943 491.09L884.267 494.838L880.519 491.163L884.194 487.415ZM858.602 487.666L862.35 491.341L858.675 495.089L854.927 491.414L858.602 487.666ZM811.416 517.435L807.74 521.183L803.993 517.507L807.668 513.76L811.416 517.435ZM833.01 487.916L836.758 491.592L833.082 495.34L829.334 491.664L833.01 487.916Z" fill="#1e1f2e" fill-rule="evenodd" opacity="1" stroke="none" vectornator:layerName="path"/>
</g>
</svg>
