<?xml version="1.0" encoding="UTF-8" standalone="no"?>
<!DOCTYPE svg PUBLIC "-//W3C//DTD SVG 1.1//EN" "http://www.w3.org/Graphics/SVG/1.1/DTD/svg11.dtd">
<!-- Created with Vectornator (http://vectornator.io/) -->
<svg height="100%" stroke-miterlimit="10" style="fill-rule:nonzero;clip-rule:evenodd;stroke-linecap:round;stroke-linejoin:round;" version="1.1" viewBox="115.663 214.933 268.674 70.1334" width="100%" xml:space="preserve" xmlns="http://www.w3.org/2000/svg" xmlns:vectornator="http://vectornator.io" xmlns:xlink="http://www.w3.org/1999/xlink">
<defs/>
<clipPath id="ArtboardFrame">
<rect height="70.1334" width="268.674" x="115.663" y="214.933"/>
</clipPath>
<g clip-path="url(#ArtboardFrame)" id="Layer" vectornator:layerName="Layer">
<g opacity="1" vectornator:layerName="Group 1">
<path d="M135.727 280.982L135.755 280.875C136.541 277.944 134.79 274.912 131.859 274.126L131.752 274.097C128.82 273.312 125.788 275.063 125.003 277.994L124.974 278.101C124.189 281.033 125.939 284.065 128.871 284.85L128.977 284.879C131.909 285.664 134.941 283.914 135.727 280.982M126.632 236.29L126.603 236.397C125.818 239.329 122.786 241.079 119.854 240.294L119.747 240.265C116.816 239.479 115.065 236.447 115.851 233.516L115.879 233.409C116.665 230.477 119.697 228.726 122.628 229.512L122.735 229.541C125.667 230.326 127.417 233.358 126.632 236.29M142.394 234.808L142.287 234.78C139.356 233.994 136.323 235.745 135.538 238.677L135.509 238.783C134.724 241.715 136.474 244.747 139.406 245.532L139.513 245.561C142.444 246.347 145.476 244.596 146.262 241.664L146.291 241.558C147.076 238.626 145.326 235.594 142.394 234.808M140.806 219.018L140.777 219.124C139.991 222.056 141.742 225.088 144.674 225.874L144.78 225.902C147.712 226.688 150.744 224.937 151.53 222.006L151.558 221.899C152.344 218.967 150.593 215.935 147.661 215.15L147.555 215.121C144.623 214.336 141.591 216.086 140.806 219.018M149.901 263.71L149.929 263.603C150.715 260.671 153.747 258.921 156.679 259.706L156.785 259.735C159.717 260.52 161.468 263.552 160.682 266.484L160.653 266.591C159.868 269.523 156.836 271.273 153.904 270.488L153.797 270.459C150.866 269.673 149.115 266.641 149.901 263.71M134.138 265.191L134.245 265.22C137.177 266.005 140.209 264.255 140.995 261.323L141.023 261.217C141.809 258.285 140.058 255.253 137.126 254.467L137.02 254.439C134.088 253.653 131.056 255.404 130.27 258.336L130.242 258.442C129.456 261.374 131.207 264.406 134.138 265.191" fill="#1e1f2e" fill-rule="evenodd" opacity="1" stroke="none" vectornator:layerName="path"/>
<path d="M384.337 256.261C384.337 257.902 383.712 259.204 382.464 260.167C381.215 261.131 379.521 261.613 377.38 261.613C374.811 261.613 372.517 260.84 370.495 259.294C370.328 259.198 370.292 259.068 370.388 258.901L370.994 257.902C371.113 257.712 371.256 257.688 371.422 257.831C373.278 259.21 375.275 259.9 377.416 259.9C378.914 259.9 380.121 259.591 381.037 258.972C381.953 258.354 382.41 257.474 382.41 256.332C382.41 255.547 382.178 254.923 381.715 254.459C381.251 253.996 380.692 253.657 380.038 253.443C379.384 253.229 378.51 253.003 377.416 252.765C375.489 252.384 373.884 251.808 372.6 251.035C371.316 250.262 370.673 249.031 370.673 247.342C370.673 245.796 371.304 244.595 372.564 243.739C373.824 242.883 375.394 242.455 377.273 242.455C378.439 242.455 379.521 242.603 380.52 242.9C381.518 243.198 382.517 243.62 383.516 244.167C383.707 244.262 383.742 244.405 383.623 244.595L383.053 245.559C383.005 245.63 382.945 245.677 382.874 245.701C382.803 245.725 382.72 245.713 382.624 245.665C381.84 245.213 380.977 244.857 380.038 244.595C379.099 244.333 378.153 244.203 377.202 244.203C375.798 244.203 374.669 244.482 373.812 245.041C372.956 245.6 372.528 246.367 372.528 247.342C372.528 248.436 372.974 249.239 373.866 249.75C374.758 250.262 376.06 250.696 377.772 251.052C379.152 251.338 380.282 251.641 381.162 251.962C382.042 252.283 382.791 252.788 383.409 253.478C384.028 254.168 384.337 255.096 384.337 256.261M359.328 259.9C361.231 259.9 362.676 259.424 363.663 258.473C364.65 257.521 365.143 256.011 365.143 253.942L365.143 250.089C365.143 248.067 364.65 246.575 363.663 245.612C362.676 244.648 361.231 244.167 359.328 244.167C358.448 244.167 357.574 244.304 356.706 244.577C355.838 244.851 355.047 245.225 354.334 245.701L354.334 259.044C355.975 259.614 357.64 259.9 359.328 259.9M354.334 243.882C355.927 242.93 357.64 242.455 359.471 242.455C361.826 242.455 363.681 243.109 365.036 244.417C366.392 245.725 367.07 247.616 367.07 250.089L367.07 253.942C367.07 256.511 366.386 258.431 365.019 259.704C363.651 260.976 361.766 261.613 359.364 261.613C358.246 261.613 357.104 261.499 355.939 261.273C354.774 261.047 353.692 260.732 352.692 260.328C352.526 260.304 352.443 260.197 352.443 260.007L352.443 235.997C352.443 235.807 352.55 235.712 352.764 235.712L354.048 235.712C354.238 235.712 354.334 235.807 354.334 235.997L354.334 243.882ZM334.998 255.833C334.998 257.094 335.509 258.087 336.531 258.812C337.554 259.537 338.898 259.9 340.563 259.9C342.228 259.9 343.893 259.614 345.558 259.044L345.558 252.408C343.916 252.051 342.252 251.873 340.563 251.873C338.732 251.873 337.346 252.212 336.407 252.89C335.467 253.568 334.998 254.549 334.998 255.833M334.106 244.31C334.914 243.739 335.884 243.287 337.013 242.954C338.143 242.621 339.35 242.455 340.634 242.455C342.846 242.455 344.535 243.037 345.7 244.203C346.866 245.368 347.448 247.033 347.448 249.197L347.448 260.043C347.448 260.209 347.365 260.328 347.199 260.399C346.295 260.732 345.266 261.018 344.113 261.256C342.959 261.493 341.776 261.613 340.563 261.613C338.399 261.613 336.609 261.113 335.194 260.114C333.778 259.115 333.071 257.688 333.071 255.833C333.071 254.025 333.737 252.634 335.069 251.659C336.401 250.684 338.232 250.196 340.563 250.196C341.824 250.196 343.488 250.386 345.558 250.767L345.558 249.233C345.558 247.592 345.159 246.343 344.362 245.487C343.566 244.631 342.299 244.203 340.563 244.203C339.54 244.203 338.547 244.34 337.584 244.613C336.621 244.886 335.794 245.237 335.105 245.665C334.962 245.784 334.831 245.761 334.712 245.594L334.106 244.666C333.987 244.5 333.987 244.381 334.106 244.31M331.287 261.47C330.479 261.565 329.801 261.613 329.254 261.613C327.708 261.613 326.507 261.095 325.651 260.06C324.794 259.026 324.366 257.474 324.366 255.405L324.366 235.997C324.366 235.807 324.461 235.712 324.652 235.712L325.936 235.712C326.15 235.712 326.257 235.807 326.257 235.997L326.257 255.512C326.257 257.034 326.525 258.14 327.06 258.83C327.595 259.519 328.374 259.864 329.396 259.864C329.777 259.864 330.395 259.817 331.251 259.721C331.442 259.721 331.537 259.817 331.537 260.007L331.537 261.113C331.537 261.327 331.454 261.446 331.287 261.47M316.375 249.59C316.375 248.353 316.03 247.437 315.34 246.843C314.651 246.248 313.771 245.951 312.7 245.951C311.582 245.951 310.691 246.242 310.025 246.825C309.359 247.407 309.026 248.329 309.026 249.59L309.026 250.517L316.375 250.517L316.375 249.59ZM320.406 253.229C320.406 253.562 320.228 253.728 319.871 253.728L309.026 253.728L309.026 254.727C309.026 255.797 309.365 256.612 310.042 257.171C310.72 257.73 311.642 258.009 312.807 258.009C313.83 258.009 314.734 257.866 315.519 257.581C316.303 257.296 317.077 256.891 317.838 256.368C317.957 256.297 318.064 256.261 318.159 256.261C318.325 256.261 318.456 256.332 318.551 256.475L320.014 258.437C320.109 258.532 320.157 258.639 320.157 258.758C320.157 258.949 320.073 259.091 319.907 259.186C317.838 260.827 315.424 261.648 312.665 261.648C311.261 261.648 309.971 261.392 308.794 260.881C307.616 260.37 306.665 259.591 305.94 258.544C305.214 257.498 304.852 256.213 304.852 254.691L304.852 249.625C304.852 247.96 305.22 246.581 305.958 245.487C306.695 244.393 307.658 243.59 308.847 243.079C310.036 242.567 311.321 242.312 312.7 242.312C314.08 242.312 315.352 242.567 316.518 243.079C317.683 243.59 318.622 244.393 319.336 245.487C320.049 246.581 320.406 247.96 320.406 249.625L320.406 253.229ZM302.533 259.65C300.654 260.982 298.549 261.648 296.218 261.648C293.745 261.648 291.795 260.994 290.368 259.686C288.94 258.378 288.227 256.63 288.227 254.442L288.227 249.483C288.227 247.294 288.94 245.553 290.368 244.256C291.795 242.96 293.733 242.312 296.183 242.312C298.276 242.312 300.226 242.883 302.033 244.024C302.2 244.119 302.283 244.262 302.283 244.452C302.283 244.548 302.247 244.654 302.176 244.774L300.785 246.914C300.666 247.08 300.523 247.164 300.357 247.164C300.238 247.164 300.131 247.128 300.036 247.057C298.846 246.367 297.598 246.022 296.29 246.022C295.029 246.022 294.06 246.32 293.382 246.914C292.704 247.509 292.365 248.365 292.365 249.483L292.365 254.477C292.365 255.571 292.704 256.422 293.382 257.028C294.06 257.635 295.017 257.938 296.254 257.938C297.705 257.938 299.084 257.51 300.392 256.653C300.535 256.582 300.654 256.546 300.749 256.546C300.916 256.546 301.046 256.63 301.142 256.796L302.64 258.937C302.711 259.079 302.747 259.198 302.747 259.294C302.747 259.412 302.675 259.531 302.533 259.65M269.283 261.22C268.927 261.22 268.748 261.042 268.748 260.685L268.748 244.346C268.748 244.036 268.879 243.822 269.141 243.703C271.281 242.776 273.648 242.312 276.24 242.312C278.832 242.312 280.86 242.96 282.323 244.256C283.786 245.553 284.517 247.568 284.517 250.303L284.517 260.685C284.517 261.042 284.35 261.22 284.017 261.22L280.914 261.22C280.557 261.22 280.378 261.042 280.378 260.685L280.378 250.374C280.378 248.781 280.033 247.657 279.344 247.003C278.654 246.349 277.619 246.022 276.24 246.022C275.003 246.022 273.885 246.153 272.887 246.415L272.887 260.685C272.887 261.042 272.708 261.22 272.351 261.22L269.283 261.22ZM261.042 249.59C261.042 248.353 260.697 247.437 260.008 246.843C259.318 246.248 258.438 245.951 257.368 245.951C256.25 245.951 255.358 246.242 254.692 246.825C254.026 247.407 253.693 248.329 253.693 249.59L253.693 250.517L261.042 250.517L261.042 249.59ZM265.074 253.229C265.074 253.562 264.895 253.728 264.539 253.728L253.693 253.728L253.693 254.727C253.693 255.797 254.032 256.612 254.71 257.171C255.388 257.73 256.309 258.009 257.475 258.009C258.497 258.009 259.401 257.866 260.186 257.581C260.971 257.296 261.744 256.891 262.505 256.368C262.624 256.297 262.731 256.261 262.826 256.261C262.993 256.261 263.124 256.332 263.219 256.475L264.681 258.437C264.776 258.532 264.824 258.639 264.824 258.758C264.824 258.949 264.741 259.091 264.574 259.186C262.505 260.827 260.091 261.648 257.332 261.648C255.929 261.648 254.638 261.392 253.461 260.881C252.284 260.37 251.333 259.591 250.607 258.544C249.882 257.498 249.519 256.213 249.519 254.691L249.519 249.625C249.519 247.96 249.888 246.581 250.625 245.487C251.362 244.393 252.326 243.59 253.515 243.079C254.704 242.567 255.989 242.312 257.368 242.312C258.747 242.312 260.02 242.567 261.185 243.079C262.35 243.59 263.29 244.393 264.003 245.487C264.717 246.581 265.074 247.96 265.074 249.625L265.074 253.229ZM237.496 261.22C237.14 261.22 236.961 261.042 236.961 260.685L236.961 244.274C236.961 243.965 237.092 243.763 237.354 243.667C238.258 243.216 239.25 242.877 240.332 242.651C241.415 242.425 242.503 242.312 243.597 242.312C244.81 242.312 246.023 242.407 247.236 242.597C247.545 242.621 247.7 242.8 247.7 243.132L247.7 245.701C247.7 245.867 247.646 245.986 247.539 246.058C247.432 246.129 247.295 246.153 247.129 246.129C246.534 246.034 245.571 245.986 244.239 245.986C242.931 245.986 241.884 246.153 241.099 246.486L241.099 260.685C241.099 261.042 240.921 261.22 240.564 261.22L237.496 261.22ZM229.255 249.59C229.255 248.353 228.911 247.437 228.221 246.843C227.531 246.248 226.651 245.951 225.581 245.951C224.463 245.951 223.571 246.242 222.905 246.825C222.239 247.407 221.906 248.329 221.906 249.59L221.906 250.517L229.255 250.517L229.255 249.59ZM233.287 253.229C233.287 253.562 233.108 253.728 232.752 253.728L221.906 253.728L221.906 254.727C221.906 255.797 222.245 256.612 222.923 257.171C223.601 257.73 224.523 258.009 225.688 258.009C226.711 258.009 227.614 257.866 228.399 257.581C229.184 257.296 229.957 256.891 230.718 256.368C230.837 256.297 230.944 256.261 231.039 256.261C231.206 256.261 231.336 256.332 231.432 256.475L232.894 258.437C232.989 258.532 233.037 258.639 233.037 258.758C233.037 258.949 232.954 259.091 232.787 259.186C230.718 260.827 228.304 261.648 225.545 261.648C224.142 261.648 222.852 261.392 221.674 260.881C220.497 260.37 219.546 259.591 218.82 258.544C218.095 257.498 217.732 256.213 217.732 254.691L217.732 249.625C217.732 247.96 218.101 246.581 218.838 245.487C219.576 244.393 220.539 243.59 221.728 243.079C222.917 242.567 224.201 242.312 225.581 242.312C226.96 242.312 228.233 242.567 229.398 243.079C230.563 243.59 231.503 244.393 232.216 245.487C232.93 246.581 233.287 247.96 233.287 249.625L233.287 253.229ZM215.592 238.994C215.164 238.923 214.628 238.887 213.986 238.887C213.059 238.887 212.345 239.178 211.846 239.761C211.347 240.344 211.097 241.146 211.097 242.169L211.097 242.99L215.199 242.99C215.556 242.99 215.735 243.168 215.735 243.525L215.735 246.093C215.735 246.45 215.556 246.628 215.199 246.628L211.097 246.628L211.097 260.685C211.097 261.042 210.918 261.22 210.561 261.22L207.493 261.22C207.137 261.22 206.958 261.042 206.958 260.685L206.958 242.169C206.958 239.957 207.559 238.257 208.76 237.068C209.961 235.878 211.489 235.284 213.344 235.284C214.248 235.284 214.973 235.331 215.521 235.427C215.853 235.45 216.02 235.641 216.02 235.997L216.02 238.459C216.02 238.816 215.877 238.994 215.592 238.994M187.373 261.22C187.016 261.22 186.837 261.042 186.837 260.685L186.837 244.346C186.837 244.036 186.968 243.822 187.23 243.703C189.37 242.776 191.737 242.312 194.329 242.312C196.922 242.312 198.949 242.96 200.412 244.256C201.875 245.553 202.606 247.568 202.606 250.303L202.606 260.685C202.606 261.042 202.44 261.22 202.106 261.22L199.003 261.22C198.646 261.22 198.468 261.042 198.468 260.685L198.468 250.374C198.468 248.781 198.123 247.657 197.433 247.003C196.743 246.349 195.709 246.022 194.329 246.022C193.093 246.022 191.975 246.153 190.976 246.415L190.976 260.685C190.976 261.042 190.797 261.22 190.44 261.22L187.373 261.22ZM181.7 260.685C181.7 261.042 181.533 261.22 181.201 261.22L177.918 261.22C177.585 261.22 177.419 261.042 177.419 260.685L177.419 236.247C177.419 235.89 177.585 235.712 177.918 235.712L181.201 235.712C181.533 235.712 181.7 235.89 181.7 236.247L181.7 260.685Z" fill="#1e1f2e" fill-rule="evenodd" opacity="1" stroke="none" vectornator:layerName="path"/>
</g>
</g>
</svg>
